<svg id="Camada_1" data-name="Camada 1" xmlns="http://www.w3.org/2000/svg" viewBox="0 0 110.66 37.34"><defs><style>.cls-1{fill:#ba935d;}.cls-2{fill:#3b2e1d;}</style></defs><title>Bnb_newb_</title><path class="cls-1" d="M90.09,2.91a15.76,15.76,0,1,0,15.76,15.76A15.77,15.77,0,0,0,90.09,2.91Zm0,29.61a13.85,13.85,0,1,1,13.85-13.85A13.85,13.85,0,0,1,90.09,32.52Z"/><path class="cls-2" d="M5.65,31.09v-5h4.67a2.43,2.43,0,0,1,1.42.31,1,1,0,0,1,.42.81v.08a.83.83,0,0,1-.27.65,1.23,1.23,0,0,1-.59.32,1.78,1.78,0,0,1,.37.13,1.74,1.74,0,0,1,.36.22.88.88,0,0,1,.3.38,1.2,1.2,0,0,1,.11.55v.08c0,.95-.69,1.43-2.09,1.43Zm4.1-3.84H7.54V28H9.75c.34,0,.5-.12.5-.35h0C10.25,27.37,10.09,27.25,9.75,27.25Zm.12,1.82H7.54v.85H9.87c.39,0,.58-.14.58-.42v0C10.45,29.21,10.26,29.07,9.87,29.07Z"/><path class="cls-2" d="M14.61,26.13v5H12.79v-5Z"/><path class="cls-2" d="M18.38,30.61a2.25,2.25,0,0,1-1.68.55h-.07a2,2,0,0,1-1.25-.33A1,1,0,0,1,15,30v-.08a.86.86,0,0,1,.33-.72,2.2,2.2,0,0,1,1.12-.32l1.73-.15c.13,0,.2-.08.2-.17a.21.21,0,0,0,0-.14.46.46,0,0,0-.23-.09,2.17,2.17,0,0,0-.51,0h0a1.83,1.83,0,0,0-.44,0,.45.45,0,0,0-.25.11.48.48,0,0,0-.08.11.16.16,0,0,0,0,.11H15.05v0a1.35,1.35,0,0,1,0-.31.91.91,0,0,1,.17-.32.94.94,0,0,1,.36-.29,2.68,2.68,0,0,1,.68-.2,6.58,6.58,0,0,1,1.07-.08h.37a7.14,7.14,0,0,1,1.11.07,3.86,3.86,0,0,1,.71.19,1.11,1.11,0,0,1,.38.28.85.85,0,0,1,.17.3,1.42,1.42,0,0,1,0,.31v1.33a.13.13,0,0,0,.15.15h.19v1.05H19A.53.53,0,0,1,18.38,30.61Zm0-1.06V29.4l-1.2.21a.89.89,0,0,0-.34.11.21.21,0,0,0-.1.2h0a.3.3,0,0,0,.13.26.65.65,0,0,0,.44.11,1.21,1.21,0,0,0,.77-.22A.64.64,0,0,0,18.35,29.55Z"/><path class="cls-2" d="M23.68,31.19h-.4a5,5,0,0,1-1.16-.12,2.45,2.45,0,0,1-.77-.31,1.92,1.92,0,0,1-.45-.45,1.86,1.86,0,0,1-.22-.49,2.44,2.44,0,0,1-.05-.48v-.12c0-1.21.88-1.82,2.64-1.82h.41a5.35,5.35,0,0,1,1.2.12,2.62,2.62,0,0,1,.77.3,1.41,1.41,0,0,1,.43.41,1.45,1.45,0,0,1,.21.41,2.2,2.2,0,0,1,0,.36v0H24.47a.58.58,0,0,0,0-.16.8.8,0,0,0-.13-.19.56.56,0,0,0-.3-.19,1.52,1.52,0,0,0-.51-.08h0a1,1,0,0,0-.75.24.84.84,0,0,0-.22.6v0a.94.94,0,0,0,.22.64.93.93,0,0,0,.75.27h0a1.5,1.5,0,0,0,.5-.08.72.72,0,0,0,.31-.2.86.86,0,0,0,.13-.21.49.49,0,0,0,0-.16h1.86a2,2,0,0,1,0,.25,1.43,1.43,0,0,1-.08.29,1.41,1.41,0,0,1-.17.32,1.25,1.25,0,0,1-.31.29,1.78,1.78,0,0,1-.47.26,3.77,3.77,0,0,1-.69.18A6.32,6.32,0,0,1,23.68,31.19Z"/><path class="cls-2" d="M28.51,31.09H26.69v-5h1.82V28.9l1.23-1.4h2l-1.46,1.59,1.68,2H29.84l-1.33-1.61Z"/><path class="cls-2" d="M34.41,31.09v-5h4.67a2.43,2.43,0,0,1,1.42.31,1,1,0,0,1,.42.81v.08a.83.83,0,0,1-.27.65,1.23,1.23,0,0,1-.59.32,1.78,1.78,0,0,1,.37.13,1.74,1.74,0,0,1,.36.22.88.88,0,0,1,.3.38,1.2,1.2,0,0,1,.11.55v.08c0,.95-.69,1.43-2.09,1.43Zm4.1-3.84h-2.2V28h2.2c.34,0,.51-.12.51-.35h0C39,27.37,38.85,27.25,38.51,27.25Zm.12,1.82H36.31v.85h2.32c.39,0,.59-.14.59-.42v0C39.22,29.21,39,29.07,38.63,29.07Z"/><path class="cls-2" d="M46.94,27.5v3.59h-1.8v-.64a2.48,2.48,0,0,1-1.83.72h0a2.33,2.33,0,0,1-.83-.13,1.22,1.22,0,0,1-.54-.36,1.58,1.58,0,0,1-.27-.44,1.27,1.27,0,0,1-.09-.47V27.5h1.83v1.72a.84.84,0,0,0,.2.6.78.78,0,0,0,.62.22.93.93,0,0,0,.69-.24.85.85,0,0,0,.25-.63V27.5Z"/><path class="cls-2" d="M50.05,31.19h-.36c-1.6,0-2.4-.42-2.4-1.27v-.05h1.85a.51.51,0,0,0,0,.13l.09.14a.49.49,0,0,0,.23.12,1.22,1.22,0,0,0,.4,0h0a1.51,1.51,0,0,0,.59-.08.25.25,0,0,0,.16-.22h0a.22.22,0,0,0-.14-.21A1.4,1.4,0,0,0,50,29.7l-.76,0c-1.24,0-1.86-.42-1.86-1.12v0a1,1,0,0,1,.09-.43,1.12,1.12,0,0,1,.34-.35,2,2,0,0,1,.73-.25,6.67,6.67,0,0,1,1.2-.09H50c1.57,0,2.36.37,2.36,1.12v0H50.58a.57.57,0,0,0,0-.14.48.48,0,0,0-.21-.12,1.19,1.19,0,0,0-.47-.07h0a1.64,1.64,0,0,0-.55.06.19.19,0,0,0-.15.19h0a.21.21,0,0,0,.14.19,1.72,1.72,0,0,0,.53.08l.76,0a4.5,4.5,0,0,1,1.22.17,1,1,0,0,1,.58.36,1.1,1.1,0,0,1,.15.61V30a1.46,1.46,0,0,1-.05.38.94.94,0,0,1-.22.34,1.32,1.32,0,0,1-.42.27,3.75,3.75,0,0,1-.72.18A8.27,8.27,0,0,1,50.05,31.19Z"/><path class="cls-2" d="M54.72,26.13V27.2H52.9V26.13Zm0,1.37v3.59H52.9V27.5Z"/><path class="cls-2" d="M55.25,31.09V27.5h1.81v.64a1,1,0,0,1,.15-.15l.25-.18a1.86,1.86,0,0,1,.37-.19,4,4,0,0,1,.47-.14,3.08,3.08,0,0,1,.61-.06h0a2.39,2.39,0,0,1,.84.13,1.4,1.4,0,0,1,.55.34,1.42,1.42,0,0,1,.28.44,1.17,1.17,0,0,1,.09.45v2.31H58.89V29.38a.85.85,0,0,0-.21-.61.86.86,0,0,0-.66-.22,1,1,0,0,0-.7.24.82.82,0,0,0-.25.63v1.67Z"/><path class="cls-2" d="M66.77,29.78v0a1.27,1.27,0,0,1,0,.34,1.12,1.12,0,0,1-.22.36,1.42,1.42,0,0,1-.44.35,2.89,2.89,0,0,1-.78.24,5.73,5.73,0,0,1-1.17.1h-.35a5.31,5.31,0,0,1-1.12-.11,2.78,2.78,0,0,1-.78-.29,1.78,1.78,0,0,1-.71-.93,2.12,2.12,0,0,1-.06-.52v-.13c0-1.21.88-1.81,2.65-1.81h.37a5.89,5.89,0,0,1,.88.06,3.05,3.05,0,0,1,.67.18,2.19,2.19,0,0,1,.48.26,1.64,1.64,0,0,1,.32.33,1.39,1.39,0,0,1,.2.36,1.48,1.48,0,0,1,.09.38,2.38,2.38,0,0,1,0,.39v.2H62.88c.06.44.43.66,1.09.66h0a2.74,2.74,0,0,0,.43,0l.29-.09a.83.83,0,0,0,.17-.12.27.27,0,0,0,.09-.11l0-.08Zm-2.83-1.5c-.59,0-.94.18-1,.54H65C64.9,28.46,64.55,28.28,63.94,28.28Z"/><path class="cls-2" d="M69.75,31.19h-.37c-1.59,0-2.39-.42-2.39-1.27v-.05h1.85a.27.27,0,0,0,0,.13.63.63,0,0,0,.09.14.45.45,0,0,0,.23.12,1.18,1.18,0,0,0,.4,0h0a1.51,1.51,0,0,0,.59-.08.24.24,0,0,0,.15-.22h0a.21.21,0,0,0-.13-.21,1.47,1.47,0,0,0-.56-.09l-.76,0c-1.23,0-1.85-.42-1.85-1.12v0a1,1,0,0,1,.09-.43.93.93,0,0,1,.34-.35,1.92,1.92,0,0,1,.73-.25,6.63,6.63,0,0,1,1.19-.09h.36c1.57,0,2.35.37,2.35,1.12v0H70.28a.58.58,0,0,0,0-.14.38.38,0,0,0-.2-.12,1.23,1.23,0,0,0-.47-.07h0a1.71,1.71,0,0,0-.56.06.19.19,0,0,0-.14.19h0a.21.21,0,0,0,.14.19,1.66,1.66,0,0,0,.53.08l.75,0a4.52,4.52,0,0,1,1.23.17,1,1,0,0,1,.58.36,1.1,1.1,0,0,1,.15.61V30a1.12,1.12,0,0,1-.06.38.79.79,0,0,1-.21.34,1.38,1.38,0,0,1-.43.27,3.62,3.62,0,0,1-.71.18A8.38,8.38,0,0,1,69.75,31.19Z"/><path class="cls-2" d="M75.2,31.19h-.37c-1.6,0-2.4-.42-2.4-1.27v-.05h1.85a.28.28,0,0,0,0,.13.4.4,0,0,0,.09.14.45.45,0,0,0,.23.12,1.15,1.15,0,0,0,.39,0h0a1.45,1.45,0,0,0,.58-.08.24.24,0,0,0,.16-.22h0a.22.22,0,0,0-.14-.21,1.4,1.4,0,0,0-.55-.09l-.76,0c-1.24,0-1.86-.42-1.86-1.12v0a.85.85,0,0,1,.1-.43,1,1,0,0,1,.33-.35,2.06,2.06,0,0,1,.73-.25,6.67,6.67,0,0,1,1.2-.09h.35c1.57,0,2.36.37,2.36,1.12v0H75.72a.57.57,0,0,0,0-.14s-.09-.08-.21-.12a1.19,1.19,0,0,0-.47-.07h0a1.71,1.71,0,0,0-.56.06.18.18,0,0,0-.14.19h0a.2.2,0,0,0,.14.19,1.58,1.58,0,0,0,.52.08l.76,0a4.52,4.52,0,0,1,1.23.17,1.07,1.07,0,0,1,.58.36,1.2,1.2,0,0,1,.14.61V30a1.13,1.13,0,0,1,0,.38,1,1,0,0,1-.21.34A1.38,1.38,0,0,1,77,31a3.75,3.75,0,0,1-.72.18A8.1,8.1,0,0,1,75.2,31.19Z"/><path class="cls-2" d="M80.47,31.09v-5h1.9v1.75h3.1V26.13h1.89v5H85.47V29.2h-3.1v1.89Z"/><path class="cls-2" d="M93.34,27.5v3.59h-1.8v-.64a2.5,2.5,0,0,1-1.83.72h0a2.3,2.3,0,0,1-.83-.13,1.22,1.22,0,0,1-.54-.36,1.58,1.58,0,0,1-.27-.44,1.27,1.27,0,0,1-.09-.47V27.5h1.83v1.72a.84.84,0,0,0,.2.6.78.78,0,0,0,.62.22.93.93,0,0,0,.69-.24.85.85,0,0,0,.25-.63V27.5Z"/><path class="cls-2" d="M93.87,26.13h1.82V28a2.85,2.85,0,0,1,1.74-.56h.14a3.13,3.13,0,0,1,1,.15,1.48,1.48,0,0,1,.66.4,1.59,1.59,0,0,1,.35.56,2,2,0,0,1,.1.67v.14a1.85,1.85,0,0,1-.11.67,1.64,1.64,0,0,1-.37.58,1.78,1.78,0,0,1-.69.41,3.2,3.2,0,0,1-1,.15h-.13a2.8,2.8,0,0,1-1.72-.54,3,3,0,0,0-.09.47H93.87Zm1.82,3.15v0a.79.79,0,0,0,.28.6,1.17,1.17,0,0,0,.8.26h0a1.15,1.15,0,0,0,.81-.25.85.85,0,0,0,.24-.61v0a.82.82,0,0,0-.24-.61,1.08,1.08,0,0,0-.81-.25h0a1.18,1.18,0,0,0-.8.25A.78.78,0,0,0,95.69,29.28Z"/><path class="cls-2" d="M5.54,23.79V12.13h11a5.68,5.68,0,0,1,3.33.74,2.28,2.28,0,0,1,1,1.91V15a2,2,0,0,1-.62,1.54,3,3,0,0,1-1.38.75,4.06,4.06,0,0,1,.87.3,4.6,4.6,0,0,1,.84.51,2.21,2.21,0,0,1,.71.9,3,3,0,0,1,.26,1.28v.19q0,3.38-4.92,3.37Zm9.63-9H10v1.64h5.18c.79,0,1.19-.27,1.19-.81v0C16.36,15,16,14.78,15.17,14.78ZM15.45,19H10v2h5.46c.92,0,1.38-.34,1.38-1v0Q16.83,19,15.45,19Z"/><path class="cls-2" d="M26.57,12.13V23.79H22.31V12.13Z"/><path class="cls-2" d="M35.44,22.66A5.34,5.34,0,0,1,31.5,24h-.18a4.65,4.65,0,0,1-2.94-.79,2.39,2.39,0,0,1-1-1.93v-.18a2,2,0,0,1,.79-1.7,5.05,5.05,0,0,1,2.63-.75l4.06-.36c.31,0,.47-.18.47-.41a.47.47,0,0,0-.11-.31,1,1,0,0,0-.52-.23,6,6,0,0,0-1.21-.1h-.06a5,5,0,0,0-1,.09,1,1,0,0,0-.58.26,1.49,1.49,0,0,0-.21.25,1.83,1.83,0,0,0-.07.26H27.62V18a4,4,0,0,1,.07-.74,2.1,2.1,0,0,1,.39-.73,2.16,2.16,0,0,1,.85-.69,6.35,6.35,0,0,1,1.6-.47,14.06,14.06,0,0,1,2.5-.19h.88a16.3,16.3,0,0,1,2.6.18,6.43,6.43,0,0,1,1.66.44,2.28,2.28,0,0,1,.89.66,1.71,1.71,0,0,1,.4.7,3.07,3.07,0,0,1,.08.73V21a.32.32,0,0,0,.36.36h.45v2.46H36.81A1.24,1.24,0,0,1,35.44,22.66Zm-.07-2.49v-.36l-2.82.5a2.14,2.14,0,0,0-.8.25.53.53,0,0,0-.24.47v0a.75.75,0,0,0,.31.61,1.65,1.65,0,0,0,1,.25,3,3,0,0,0,1.83-.53A1.52,1.52,0,0,0,35.37,20.17Z"/><path class="cls-2" d="M47.87,24h-.94a11.07,11.07,0,0,1-2.72-.29A5.66,5.66,0,0,1,42.4,23a3.88,3.88,0,0,1-1-1.06,3.68,3.68,0,0,1-.52-1.15,5.78,5.78,0,0,1-.11-1.13v-.28q0-4.28,6.19-4.27h1a12.23,12.23,0,0,1,2.8.29,6.67,6.67,0,0,1,1.82.69,3.35,3.35,0,0,1,1,1A2.88,2.88,0,0,1,54,18a3.86,3.86,0,0,1,.09.84v.05H49.74a1.51,1.51,0,0,0-.12-.38,2.83,2.83,0,0,0-.31-.46,1.47,1.47,0,0,0-.71-.44,3.53,3.53,0,0,0-1.2-.18h-.06a2.33,2.33,0,0,0-1.77.56,2,2,0,0,0-.52,1.4v.08A2.24,2.24,0,0,0,45.58,21a2.19,2.19,0,0,0,1.76.62h.06a3.51,3.51,0,0,0,1.19-.18,1.7,1.7,0,0,0,.72-.47,2.49,2.49,0,0,0,.31-.48,1.46,1.46,0,0,0,.12-.39h4.35v0a3.69,3.69,0,0,1,0,.58,2.76,2.76,0,0,1-.18.68,3.37,3.37,0,0,1-.4.75,3.52,3.52,0,0,1-.73.7,5.3,5.3,0,0,1-1.11.6,8.21,8.21,0,0,1-1.6.41A14.17,14.17,0,0,1,47.87,24Z"/><path class="cls-2" d="M59.22,23.79H55V12.13h4.26v6.52l2.88-3.29h4.59l-3.43,3.73,3.94,4.7H62.35L59.22,20Z"/><path class="cls-2" d="M67.6,23.79V15.36h4.23v1.49l.37-.34a6.17,6.17,0,0,1,.58-.42,5.26,5.26,0,0,1,.87-.46,7.54,7.54,0,0,1,1.11-.31,6.6,6.6,0,0,1,1.43-.15h.1a5.56,5.56,0,0,1,2,.31,3.23,3.23,0,0,1,1.29.79,3.26,3.26,0,0,1,.67,1,2.88,2.88,0,0,1,.21,1.08v5.42H76.14v-4a2,2,0,0,0-.49-1.42,2,2,0,0,0-1.54-.52,2.34,2.34,0,0,0-1.65.56,1.94,1.94,0,0,0-.59,1.49v3.92Z"/><path class="cls-1" d="M82.1,23.79V12.11h11a5.74,5.74,0,0,1,3.34.74,2.32,2.32,0,0,1,1,1.91v.17a2,2,0,0,1-.63,1.55,3.13,3.13,0,0,1-1.38.75,4.68,4.68,0,0,1,.87.29,5.91,5.91,0,0,1,.85.52,2.28,2.28,0,0,1,.7.9,2.9,2.9,0,0,1,.26,1.28v.19q0,3.38-4.93,3.38Zm9.64-9H86.56v1.65h5.18c.79,0,1.19-.27,1.19-.82v0C92.93,15,92.53,14.76,91.74,14.76ZM92,19H86.56v2H92c.92,0,1.38-.33,1.38-1V20Q93.4,19,92,19Z"/></svg>